<svg height="120" viewBox="0 0 120 120" width="120" xmlns="http://www.w3.org/2000/svg"><path d="m16.4766551 41.5763066h49.7505226c2.9063879 0 5.4174216-.2297328 7.533101-.6891986 2.1156795-.4594657 3.9108014-1.4371661 5.3853659-2.933101 1.4745645-1.4745645 2.4415796-3.2590012 2.9010453-5.3533101.4594657-2.094309.6891986-4.5946574.6891986-7.5010453v-8.6229965c0-2.9277585-.2297329-5.4387921-.6891986-7.53310109-.4594657-2.09430895-1.4264808-3.87874565-2.9010453-5.35331011-1.495935-1.47456446-3.2963995-2.44157956-5.4013937-2.90104529-2.1049942-.45946574-4.6106853-.68919861-7.5170732-.68919861h-49.9428571c-2.7995355 0-5.2464576.23507549-7.34076659.70522648-2.09430895.47015099-3.87874565 1.44250871-5.35331011 2.91707317s-2.44157956 3.25365854-2.90104529 5.33728223c-.45946574 2.08362372-.68919861 4.51451802-.68919861 7.29268292v8.8473868c0 2.9063879.22439024 5.4120789.67317073 7.5170731s1.41045296 3.8840883 2.88501742 5.3372823c1.49593496 1.4959349 3.29639954 2.4736353 5.40139373 2.933101 2.10499422.4594658 4.61068522.6891986 7.51707322.6891986zm-.8655053-3.9749129c-1.8806039 0-3.6276423-.1816492-5.241115-.5449477-1.61347266-.3632985-2.9117305-1.025784-3.89477348-1.9874565-.98304297-1.0044134-1.65087108-2.2973286-2.00348432-3.8787456s-.52891986-3.3337979-.52891986-5.2571429v-10.1296167c0-1.9874564.17630662-3.7932636.52891986-5.4174216.35261324-1.62415794 1.0097561-2.9277584 1.97142857-3.91080138.98304298-.98304297 2.29732869-1.65087108 3.94285713-2.00348432 1.6455285-.35261324 3.4620209-.52891986 5.4494774-.52891986h51.2571428c1.9019745 0 3.6596981.18164925 5.2731708.54494774s2.9010453 1.03646922 3.8627177 2.01951219c.983043.98304298 1.6562137 2.27061557 2.0195122 3.86271773.3632985 1.5921022.5449478 3.3284553.5449478 5.2090593v10.3540069c0 1.923345-.1816493 3.6757259-.5449478 5.2571429s-1.0364692 2.8743322-2.0195122 3.8787456c-.9616724.983043-2.249245 1.6508711-3.8627177 2.0034844-1.6134727.3526132-3.3711963.5289198-5.2731708.5289198zm70.8111499-9.0076655c.7907084-.0641115 1.6188153-.4220673 2.4843205-1.0738676.8655052-.6518002 1.5974448-1.5547038 2.1958188-2.7087108.598374-1.1540069.897561-2.5003484.897561-4.0390244 0-1.5386759-.299187-2.8796748-.897561-4.0229965s-1.3303136-2.0462253-2.1958188-2.7087108-1.6936121-1.0150987-2.4843205-1.0578397zm-71.9331011 5.7379791h53.7254355c1.453194 0 2.6339141-.1228804 3.5421603-.3686411.9082463-.2457607 1.6295006-.6357724 2.1637631-1.1700348 1.0471545-1.0471545 1.5707317-2.949129 1.5707317-5.7059234v-12.5979094c0-1.4745645-.1228804-2.6606272-.3686411-3.5581881-.2457608-.897561-.6357724-1.624158-1.1700349-2.17979099-.5556329-.53426248-1.2875725-.9242741-2.1958188-1.17003484-.9082462-.24576074-2.0889663-.36864112-3.5421603-.36864112h-53.5010452c-1.538676 0-2.778165.12288038-3.7184669.36864112-.940302.24576074-1.67758425.63577236-2.21184674 1.17003484-.53426248.55563299-.9242741 1.29825789-1.17003484 2.22787459-.24576075.9296167-.36864112 2.1530778-.36864112 3.6703833v12.4376306c0 1.453194.12288037 2.6285714.36864112 3.5261324.24576074.897561.63577236 1.624158 1.17003484 2.179791.53426249.5342624 1.26085944.9242741 2.17979094 1.1700348s2.0943089.3686411 3.5261324.3686411z" transform="translate(14.155518 39.216064)"/></svg>