<svg height="120" viewBox="0 0 120 120" width="120" xmlns="http://www.w3.org/2000/svg"><path d="m60.0175012 46.121635c5.5653865 0 10.1857074-4.6553233 10.1857074-10.2557122s-4.6203209-10.2207098-10.1857074-10.1859049c-5.6003889 0-10.2557122 4.585516-10.2557122 10.1859049s4.6553233 10.2557122 10.2557122 10.2557122zm25.761789 0c5.6003889 0 10.2207098-4.6553233 10.2207098-10.2557122s-4.6203209-10.2207098-10.2207098-10.1859049c-5.6003889 0-10.1857073 4.585516-10.1857073 10.1859049s4.5853184 10.2557122 10.1857073 10.2557122zm-51.5585804-.0350024c5.6003889 0 10.1857073-4.6203209 10.1857073-10.1857074 0-5.6003889-4.5853184-10.2207097-10.1857073-10.2207097-5.6353914 0-10.2207098 4.6203208-10.2207098 10.2207097 0 5.5653865 4.5853184 10.1857074 10.2207098 10.1857074zm51.5585804-3.9202723c-3.5352455 0-6.2304326-2.765192-6.2304326-6.3004375 0-3.5002431 2.6951871-6.3004375 6.2304326-6.3004375s6.3004376 2.8001944 6.3004376 6.3004375c0 3.5352455-2.7651921 6.3004375-6.3004376 6.3004375zm-51.5585804-.1400097c-3.4652407 0-6.1954303-2.6951872-6.1954303-6.1604278 0-3.4302382 2.7301896-6.1954302 6.1954303-6.1954302 3.4652406 0 6.1604278 2.765192 6.1604278 6.1954302 0 3.4652406-2.6951872 6.1604278-6.1604278 6.1604278zm25.7967914 0c-3.5002431 0-6.1954302-2.6951872-6.1954302-6.1604278 0-3.4302382 2.6951871-6.1954302 6.1954302-6.1954302 3.4652407 0 6.1254254 2.765192 6.1604278 6.1954302.0350025 3.4652406-2.6951871 6.1604278-6.1604278 6.1604278zm-25.7967914 28.1769567c5.6003889 0 10.1857073-4.6203208 10.1857073-10.1857073 0-5.6003889-4.5853184-10.2557122-10.1857073-10.2209059-5.6353914.0351986-10.2207098 4.620517-10.2207098 10.2209059 0 5.5653865 4.5853184 10.1857073 10.2207098 10.1857073zm25.7967914 0c5.5653865 0 10.1857074-4.6203208 10.1857074-10.1857073 0-5.6003889-4.6203209-10.2557122-10.1857074-10.2209059-5.6003889.0351986-10.2557122 4.620517-10.2557122 10.2209059 0 5.5653865 4.6553233 10.1857073 10.2557122 10.1857073zm25.761789 0c5.6003889 0 10.2207098-4.6203208 10.2207098-10.1857073 0-5.6003889-4.6203209-10.2557122-10.2207098-10.2209059-5.6003889.0351986-10.1857073 4.620517-10.1857073 10.2209059 0 5.5653865 4.5853184 10.1857073 10.1857073 10.1857073zm-51.5585804-3.9202722c-3.5352455 0-6.3004376-2.8001945-6.3004376-6.3004375 0-3.4652407 2.7651921-6.3004376 6.3004376-6.3004376s6.2304326 2.8351969 6.2304326 6.3004376c0 3.500243-2.6951871 6.3004375-6.2304326 6.3004375zm25.7967914 0c-3.5352455 0-6.3004375-2.8001945-6.3004375-6.3004375 0-3.4652407 2.765192-6.3004376 6.3004375-6.3004376 3.5002431 0 6.2654351 2.8351969 6.2654351 6.3004376 0 3.500243-2.765192 6.3004375-6.2654351 6.3004375zm25.761789 0c-3.5352455 0-6.2304326-2.8001945-6.2304326-6.3004375 0-3.4652407 2.6951871-6.3004376 6.2304326-6.3004376s6.3004376 2.8351969 6.3004376 6.3004376c0 3.500243-2.7651921 6.3004375-6.3004376 6.3004375zm-51.5585804 28.036947c5.6003889 0 10.1857073-4.6203208 10.1857073-10.2207098 0-5.6003889-4.5853184-10.2207097-10.1857073-10.2207097-5.6353914 0-10.2207098 4.6203208-10.2207098 10.2207097 0 5.600389 4.5853184 10.2207098 10.2207098 10.2207098zm25.7967914 0c5.5653865 0 10.1857074-4.6203208 10.1857074-10.2207098 0-5.6003889-4.6203209-10.2207097-10.1857074-10.2207097-5.6003889 0-10.2557122 4.6203208-10.2557122 10.2207097 0 5.600389 4.6553233 10.2207098 10.2557122 10.2207098zm25.761789 0c5.6003889 0 10.2207098-4.6203208 10.2207098-10.2207098 0-5.6003889-4.6203209-10.2207097-10.2207098-10.2207097s-10.1857073 4.6203208-10.1857073 10.2207097c0 5.600389 4.5853184 10.2207098 10.1857073 10.2207098zm-51.5585804-3.9552747c-3.5352455 0-6.3004376-2.765192-6.3004376-6.2654351 0-3.500243 2.7651921-6.3004375 6.3004376-6.3004375s6.2304326 2.8001945 6.2304326 6.3004375c0 3.5002431-2.6951871 6.2654351-6.2304326 6.2654351zm25.7967914 0c-3.5352455 0-6.3004375-2.765192-6.3004375-6.2654351 0-3.500243 2.765192-6.3004375 6.3004375-6.3004375 3.5002431 0 6.2654351 2.8001945 6.2654351 6.3004375 0 3.5002431-2.765192 6.2654351-6.2654351 6.2654351zm25.761789 0c-3.5352455 0-6.2304326-2.765192-6.2304326-6.2654351 0-3.500243 2.6951871-6.3004375 6.2304326-6.3004375s6.3004376 2.8001945 6.3004376 6.3004375c0 3.5002431-2.7651921 6.2654351-6.3004376 6.2654351z" fill="#1d1d1f"/></svg>