<svg height="120" viewBox="0 0 120 120" width="120" xmlns="http://www.w3.org/2000/svg"><g fill="none" fill-rule="evenodd" transform="translate(28 15)"><rect height="84.872815" rx="10.419802" stroke="#000" stroke-width="4.127185" width="60.872815" x="2.063593" y="2.063593"/><g fill="#000"><rect height="3.708333" rx="1.854167" width="11.926606" x="41.444954" y="52.51"/><rect height="3.708333" rx="1.854167" width="11.926606" x="41.444954" y="62.893333"/><rect height="3.708333" rx="1.854167" width="11.926606" x="41.444954" y="42.126667"/><rect height="3.708333" rx="1.854167" width="26.834862" x="11.62844" y="52.51"/><rect height="3.708333" rx="1.854167" width="26.834862" x="11.62844" y="62.893333"/><rect height="3.708333" rx="1.854167" width="17.889908" x="35.481651" y="73.276667"/><rect height="3.708333" rx="1.854167" width="26.834862" x="11.62844" y="42.126667"/><path d="m36.3122106 13.1340405c-.7496958.999584-2.0616637 1.7523572-3.273672 1.6042706-.2623936-1.295757.4623125-2.5915141 1.1370388-3.4183305.8621502-.999584 2.2240978-1.67831393 3.3986213-1.67831393.0749696 1.29575703-.3998378 2.56683303-1.2619881 3.49237383z"/><path d="m37.4617443 15.0221436c.7871807 0 2.8863292.2344704 4.1858021 2.2089573-.0999595.0617028-2.4864914 1.3698004-2.4864914 4.2698281.1124544 3.3072657 3.0112785 4.4672768 3.0612582 4.4672768-.0499797.0617027-.4373226 1.5795895-1.5868563 3.1715197-.91213 1.3698003-1.9242194 2.7519412-3.461096 2.7519412-1.461907 0-1.9866941-.9132003-3.6735098-.9132003-1.8117651 0-2.3240573.9132003-3.7109947.9132003-1.5368766 0-2.6239356-1.4561842-3.5860453-2.813644-1.2494932-1.7770382-2.3115624-4.5660011-2.3490471-7.243899-.0249899-1.4191625.2498986-2.8136439.9496147-3.9983361.9870996-1.6536329 2.748885-2.7766223 4.6731044-2.813644 1.4744019-.0493621 2.7863697.9995841 3.6860048.9995841.8621503 0 2.4739964-.9995841 4.2982564-.9995841z"/></g></g></svg>